<?xml version="1.0" encoding="UTF-8"?>
<svg id="a" data-name="logo" xmlns="http://www.w3.org/2000/svg" viewBox="0 0 800 800">
  <defs>
    <style>
      .b {
        fill: #fff;
      }

      .c, .d, .e, .f {
        fill: #dc2626;
      }

      .d {
        opacity: .2;
      }

      .e {
        opacity: .6;
      }

      .f {
        opacity: .4;
      }
    </style>
  </defs>
  <path class="f" d="m385.72,616.52L57.02,424.44c-18.7-10.93-18.7-37.95,0-48.88l328.7-192.08c8.82-5.16,19.74-5.16,28.56,0l328.7,192.08c18.7,10.93,18.7,37.95,0,48.88l-328.7,192.08c-8.82,5.16-19.74,5.16-28.56,0Z"/>
  <path class="e" d="m385.72,545.12L57.02,353.03c-18.7-10.93-18.7-37.95,0-48.88L385.72,112.07c8.82-5.16,19.74-5.16,28.56,0l328.7,192.08c18.7,10.93,18.7,37.95,0,48.88l-328.7,192.08c-8.82,5.16-19.74,5.16-28.56,0Z"/>
  <path class="d" d="m385.72,761.6L57.02,569.51c-18.7-10.93-18.7-37.95,0-48.88l328.7-192.08c8.82-5.16,19.74-5.16,28.56,0l328.7,192.08c18.7,10.93,18.7,37.95,0,48.88l-328.7,192.08c-8.82,5.16-19.74,5.16-28.56,0Z"/>
  <path class="c" d="m385.72,471.45L57.02,279.36c-18.7-10.93-18.7-37.95,0-48.88L385.72,38.4c8.82-5.16,19.74-5.16,28.56,0l328.7,192.08c18.7,10.93,18.7,37.95,0,48.88l-328.7,192.08c-8.82,5.16-19.74,5.16-28.56,0Z"/>
  <path class="d" d="m385.72,689.06L57.02,496.98c-18.7-10.93-18.7-37.95,0-48.88l328.7-192.08c8.82-5.16,19.74-5.16,28.56,0l328.7,192.08c18.7,10.93,18.7,37.95,0,48.88l-328.7,192.08c-8.82,5.16-19.74,5.16-28.56,0Z"/>
  <g>
    <path class="b" d="m293.6,207.65l95.5,72.65c4.01,3.06,7.51,6.03,10.46,8.91,2.96,2.89,5.15,5.59,6.56,8.11,2.23,4.05,3.52,8.24,3.86,12.58.34,4.34-.28,8.61-1.87,12.83-1.59,4.22-4.09,8.34-7.49,12.36-3.4,4.02-7.66,7.71-12.78,11.05-15.5,10.11-34.88,13.2-58.13,9.27l.68-34.24c4.78,2.73,9.48,4.31,14.09,4.74,4.61.43,8.52-.4,11.72-2.49,7.04-4.59,5.27-10.92-5.32-18.98l-94.95-72.24,37.67-24.56Z"/>
    <path class="b" d="m526.7,216.37l-53.81,35.09,15.27,23.84-40.17,26.19-82.52-140.71,41.13-26.82,192.83,68.78-40.17,26.19-32.57-12.56Zm-37.2-14.18l-62.74-23.84,28.92,45.9,33.82-22.06Z"/>
  </g>
</svg>